<!DOCTYPE svg PUBLIC "-//W3C//DTD SVG 1.1//EN" "https://www.w3.org/Graphics/SVG/1.1/DTD/svg11.dtd"><svg xmlns="http://www.w3.org/2000/svg" id="sfn-svg" class="sfn-workflow-graph" width="662" height="505">  
<g transform="translate(12,19.375)"><g class="nodes"><g class="node-container" transform="translate(442.5859375,18.5)"><g class="node anchor"><circle class="shape" x="-15.875" y="-8.5" r="25.875"/><text class="label"><tspan xml:space="preserve" text-anchor="middle" alignment-baseline="central">Start</tspan></text></g></g><g class="node-container" transform="translate(283.390625,450.625)"><g class="node anchor"><circle class="shape" x="-12.1875" y="-8.5" r="22.1875"/><text class="label"><tspan xml:space="preserve" text-anchor="middle" alignment-baseline="central">End</tspan></text></g></g><g class="node-container" transform="translate(442.5859375,80.5)"><g class="node state Task NotYetStarted"><rect class="shape" rx="5" ry="5" x="-51.71875" y="-18.5" width="103.4375" height="37"/><text class="label"><tspan xml:space="preserve" text-anchor="middle" alignment-baseline="central">BuildRequest</tspan></text></g></g><g class="node-container" transform="translate(283.390625,172.53125)"><g class="node state Parallel NotYetStarted Container" transform="translate(-283.390625,-48.53125)"><rect class="shape" rx="19.4125" ry="19.4125" x="0" y="0" width="566.78125" height="97.0625"/><g class="branches" transform="translate(20,40)"><g class="branch" transform="translate(0,0)"><g class="nodes"><g class="node-container" transform="translate(138.1875,18.53125)"><g class="node state Task NotYetStarted"><rect class="shape" rx="5" ry="5" x="-138.1875" y="-18.53125" width="276.375" height="37.0625"/><text class="label"><tspan xml:space="preserve" text-anchor="middle" alignment-baseline="central">ProductQuantityLimitsRestrictionsCheck</tspan></text></g></g></g><g class="edges"/></g><g class="branch" transform="translate(296.375,0)"><g class="nodes"><g class="node-container" transform="translate(115.203125,18.53125)"><g class="node state Task NotYetStarted"><rect class="shape" rx="5" ry="5" x="-115.203125" y="-18.53125" width="230.40625" height="37.0625"/><text class="label"><tspan xml:space="preserve" text-anchor="middle" alignment-baseline="central">SpendingLimitsRestrictionsCheck</tspan></text></g></g></g><g class="edges"/></g></g><path class="path" marker-end="url(#arrowhead25)" d="M283.390625,0L283.39062499999994,3.333333333333333C283.390625,6.666666666666666,283.390625,13.333333333333332,262.52343749999994,16.666666666666664C241.65624999999997,20,199.921875,20,179.0546875,23.33333333333333C158.1875,26.666666666666664,158.1875,33.33333333333333,158.1875,36.666666666666664L158.1875,40" style="fill: none;"/><path class="path" marker-end="url(#arrowhead26)" d="M283.390625,0L283.39062499999994,3.333333333333333C283.390625,6.666666666666666,283.390625,13.333333333333332,308.08854166666663,16.666666666666664C332.7864583333333,20,382.18229166666663,20,406.8802083333333,23.33333333333333C431.578125,26.666666666666664,431.578125,33.33333333333333,431.578125,36.666666666666664L431.578125,40" style="fill: none;"/></g></g><g class="node-container" transform="translate(556.78125,326.625)"><g class="node state Task NotYetStarted"><rect class="shape" rx="5" ry="5" x="-41.984375" y="-18.5" width="83.96875" height="37"/><text class="label"><tspan xml:space="preserve" text-anchor="middle" alignment-baseline="central">BuildError</tspan></text></g></g><g class="node-container" transform="translate(233.0859375,264.59375)"><g class="node state Task NotYetStarted"><rect class="shape" rx="5" ry="5" x="-65.609375" y="-18.53125" width="131.21875" height="37.0625"/><text class="label"><tspan xml:space="preserve" text-anchor="middle" alignment-baseline="central">AggregateResults</tspan></text></g></g><g class="node-container" transform="translate(218.0859375,388.625)"><g class="node state Task NotYetStarted"><rect class="shape" rx="5" ry="5" x="-88.140625" y="-18.5" width="176.28125" height="37"/><text class="label"><tspan xml:space="preserve" text-anchor="middle" alignment-baseline="central">PublishValidationResults</tspan></text></g></g><g class="node-container" transform="translate(556.78125,388.625)"><g class="node state Task NotYetStarted"><rect class="shape" rx="5" ry="5" x="-81.21875" y="-18.5" width="162.4375" height="37"/><text class="label"><tspan xml:space="preserve" text-anchor="middle" alignment-baseline="central">PublishValidationError</tspan></text></g></g></g><g class="edges"><g class="edge"><path class="path" marker-end="url(#arrowhead27)" d="M390.8671875,90.57115865927271L372.9544270833333,94.05929888272725C355.04166666666663,97.5474391061818,319.2161458333333,104.5237195530909,301.30338541666663,110.09519310987878C283.390625,115.66666666666666,283.390625,119.83333333333331,283.39062499999994,121.91666666666666L283.390625,124" style="fill: none;"/><defs><marker id="arrowhead27" viewBox="0 0 10 10" refX="9" refY="5" markerUnits="strokeWidth" markerWidth="8" markerHeight="6" orient="auto"><path d="M 0 0 L 10 5 L 0 10 z"/></marker></defs></g><g class="edge"><path class="path" marker-end="url(#arrowhead28)" d="M494.3046875,90.57115865927271L512.2174479166666,94.05929888272725C530.1302083333333,97.5474391061818,565.9557291666666,104.5237195530909,583.8684895833333,118.18373477654545C601.78125,131.84375,601.78125,152.1875,601.78125,172.53125C601.78125,192.875,601.78125,213.21874999999997,601.78125,228.5625C601.78125,243.90624999999997,601.78125,254.24999999999997,601.78125,264.59374999999994C601.78125,274.9375,601.78125,285.28125,598.7570564516129,292.5364583333333C595.7328629032259,299.79166666666663,589.6844758064516,303.9583333333333,586.6602822580645,306.0416666666667L583.6360887096774,308.125" style="fill: none;"/><defs><marker id="arrowhead28" viewBox="0 0 10 10" refX="9" refY="5" markerUnits="strokeWidth" markerWidth="8" markerHeight="6" orient="auto"><path d="M 0 0 L 10 5 L 0 10 z"/></marker></defs></g><g class="edge"><path class="path" marker-end="url(#arrowhead29)" d="M442.5859375,44.375L442.5859374999999,45.229166666666664C442.58593749999994,46.08333333333333,442.58593749999994,47.791666666666664,442.5859374999999,50.72916666666667C442.58593749999994,53.666666666666664,442.58593749999994,57.83333333333333,442.5859374999999,59.91666666666666L442.5859375,62" style="fill: none;"/><defs><marker id="arrowhead29" viewBox="0 0 10 10" refX="9" refY="5" markerUnits="strokeWidth" markerWidth="8" markerHeight="6" orient="auto"><path d="M 0 0 L 10 5 L 0 10 z"/></marker></defs></g><g class="edge"><path class="path" marker-end="url(#arrowhead30)" d="M243.38899689580134,221.0625L241.67182032983445,223.14583333333331C239.95464376386755,225.22916666666666,236.5202906319338,229.39583333333331,234.8031140659669,233.56249999999997C233.0859375,237.72916666666663,233.0859375,241.89583333333331,233.0859375,243.97916666666666L233.0859375,246.0625" style="fill: none;"/><defs><marker id="arrowhead30" viewBox="0 0 10 10" refX="9" refY="5" markerUnits="strokeWidth" markerWidth="8" markerHeight="6" orient="auto"><path d="M 0 0 L 10 5 L 0 10 z"/></marker></defs></g><g class="edge"><path class="path" marker-end="url(#arrowhead31)" d="M398.05284738223247,221.0625L402.9750290685271,223.14583333333331C407.89721075482163,225.22916666666666,417.7415741274108,229.39583333333331,422.6637558137054,236.65104166666663C427.58593749999994,243.90624999999997,427.58593749999994,254.24999999999997,427.5859374999999,264.59374999999994C427.58593749999994,274.9375,427.58593749999994,285.28125,442.1210937499999,293.9407890261232C456.65624999999994,302.6003280522465,485.72656249999994,309.57565610449296,500.2617187499999,313.06332013061615L514.796875,316.55098415673945" style="fill: none;"/><defs><marker id="arrowhead31" viewBox="0 0 10 10" refX="9" refY="5" markerUnits="strokeWidth" markerWidth="8" markerHeight="6" orient="auto"><path d="M 0 0 L 10 5 L 0 10 z"/></marker></defs></g><g class="edge"><path class="path" marker-end="url(#arrowhead32)" d="M224.12823357250755,283.125L223.12118422708963,285.2083333333333C222.1141348816717,287.29166666666663,220.10003619083585,291.4583333333333,219.09298684541793,298.7083333333333C218.0859375,305.9583333333333,218.0859375,316.29166666666663,218.0859375,326.625C218.0859375,336.9583333333333,218.0859375,347.29166666666663,218.0859375,354.54166666666663C218.0859375,361.79166666666663,218.0859375,365.9583333333333,218.0859375,368.0416666666667L218.0859375,370.125" style="fill: none;"/><defs><marker id="arrowhead32" viewBox="0 0 10 10" refX="9" refY="5" markerUnits="strokeWidth" markerWidth="8" markerHeight="6" orient="auto"><path d="M 0 0 L 10 5 L 0 10 z"/></marker></defs></g><g class="edge"><path class="path" marker-end="url(#arrowhead33)" d="M298.6953125,280.35237837878697L309.29296874999994,282.89781531565575C319.890625,285.44325225252464,341.0859375,290.5341261262623,377.10286458333326,297.1309635558475C413.11979166666663,303.72780098543274,463.95833333333326,311.8306019708655,489.37760416666663,315.8820024635818L514.796875,319.9334029562982" style="fill: none;"/><defs><marker id="arrowhead33" viewBox="0 0 10 10" refX="9" refY="5" markerUnits="strokeWidth" markerWidth="8" markerHeight="6" orient="auto"><path d="M 0 0 L 10 5 L 0 10 z"/></marker></defs></g><g class="edge"><path class="path" marker-end="url(#arrowhead34)" d="M556.78125,345.125L556.78125,347.2083333333333C556.78125,349.29166666666663,556.78125,353.4583333333333,556.78125,357.625C556.78125,361.79166666666663,556.78125,365.9583333333333,556.78125,368.0416666666667L556.78125,370.125" style="fill: none;"/><defs><marker id="arrowhead34" viewBox="0 0 10 10" refX="9" refY="5" markerUnits="strokeWidth" markerWidth="8" markerHeight="6" orient="auto"><path d="M 0 0 L 10 5 L 0 10 z"/></marker></defs></g><g class="edge"><path class="path" marker-end="url(#arrowhead35)" d="M218.0859375,407.125L218.0859375,409.20833333333326C218.0859375,411.29166666666663,218.0859375,415.4583333333333,225.6294161608893,421.12254037481455C233.17289482177858,426.7867474162959,248.25985214355717,433.9484948325918,255.80333080444646,437.5293685407397L263.34680946533575,441.1102422488877" style="fill: none;"/><defs><marker id="arrowhead35" viewBox="0 0 10 10" refX="9" refY="5" markerUnits="strokeWidth" markerWidth="8" markerHeight="6" orient="auto"><path d="M 0 0 L 10 5 L 0 10 z"/></marker></defs></g><g class="edge"><path class="path" marker-end="url(#arrowhead36)" d="M556.78125,407.125L556.78125,409.20833333333326C556.78125,411.29166666666663,556.78125,415.4583333333333,514.890516355568,422.29169327411665C472.999782711136,429.12505321490005,389.218315422272,438.6251064298001,347.32758177784,443.3751330372501L305.43684813340803,448.12515964470015" style="fill: none;"/><defs><marker id="arrowhead36" viewBox="0 0 10 10" refX="9" refY="5" markerUnits="strokeWidth" markerWidth="8" markerHeight="6" orient="auto"><path d="M 0 0 L 10 5 L 0 10 z"/></marker></defs></g></g></g><style xmlns="http://www.w3.org/1999/xhtml">.node &gt; .shape {stroke: #555555;stroke-width: 0.6px;fill: #FFFFFF;} path {stroke: #555;background-color: #555;stroke-width: 1px;} .node.state.NotYetStarted &gt; .shape,.node.state.Container &gt; .shape {stroke-dasharray: 5 2;} .node.state.Failed &gt; .shape,rect.legend.Failed {fill: #DE322F;} .node.state.CaughtError &gt; .shape,rect.legend.CaughtError {fill: #FFA500;} .node.state.Succeeded &gt; .shape,rect.legend.Succeeded {fill: #2BD62E;} .node.state.InProgress &gt; .shape,rect.legend.InProgress {fill: #53c9ed;} .node.state.Cancelled &gt; .shape,rect.legend.Cancelled {fill: #dddddd;} .node.anchor &gt; .shape {fill: #FFDA75;} .node.state.hovered:not(.selected):not(.NotYetStarted) &gt; .shape,.node.selected &gt; .shape {stroke: #555555;stroke-width: 2px;} .node.state.Container.Failed &gt; .shape {fill: #EE9592;} .node.state.Container.CaughtError &gt; .shape {fill: #FFD27F;} .node.state.Container.Succeeded &gt; .shape {fill: #91EA9A;} .node.state.Container.InProgress &gt; .shape {fill :#A9E4F7;} .node.state.Container.Cancelled &gt; .shape {fill: #EEEEEE;} marker {fill: #555555;} .node.anchor,.node.state.NotYetStarted {cursor: default;} .node.state {cursor: pointer;} tspan .label {font-weight: normal;font-size: 12px;text-shadow: none;} </style></svg>