<?xml version="1.0" encoding="UTF-8"?>
<svg xmlns="http://www.w3.org/2000/svg" xmlns:xlink="http://www.w3.org/1999/xlink" width="47px" height="30.5px" viewBox="0 0 70 46" version="1.1">
<g id="surface1">
<path style=" stroke:none;fill-rule:nonzero;fill:rgb(100%,100%,100%);fill-opacity:1;" d="M 54.160156 15.789062 C 52.167969 15.152344 51.140625 15.367188 49.046875 15.136719 C 45.816406 14.777344 44.527344 13.5 43.980469 10.207031 C 43.675781 8.371094 44.039062 5.679688 43.257812 4.011719 C 41.765625 0.835938 38.273438 -0.589844 34.765625 0.222656 C 31.800781 0.914062 29.335938 3.910156 29.199219 6.988281 C 29.042969 10.5 31.019531 13.5 34.414062 14.535156 C 36.027344 15.027344 37.742188 15.273438 39.425781 15.398438 C 42.515625 15.628906 42.753906 17.367188 43.589844 18.796875 C 44.117188 19.699219 44.625 20.589844 44.625 23.28125 C 44.625 25.96875 44.113281 26.859375 43.589844 27.761719 C 42.753906 29.191406 41.722656 30.125 38.632812 30.355469 C 36.949219 30.484375 35.230469 30.730469 33.621094 31.222656 C 30.226562 32.261719 28.25 35.253906 28.40625 38.769531 C 28.542969 41.847656 31.007812 44.84375 33.96875 45.53125 C 37.480469 46.347656 40.972656 44.921875 42.464844 41.742188 C 43.246094 40.078125 43.675781 38.191406 43.980469 36.351562 C 44.53125 33.0625 45.820312 31.78125 49.046875 31.425781 C 51.140625 31.191406 53.304688 31.425781 55.261719 30.296875 C 57.332031 28.765625 59.183594 26.464844 59.183594 23.28125 C 59.183594 20.09375 57.1875 16.753906 54.160156 15.789062 Z M 54.160156 15.789062 "/>
<path style=" stroke:none;fill-rule:nonzero;fill:rgb(100%,100%,100%);fill-opacity:1;" d="M 21 30.746094 C 16.925781 30.746094 13.601562 27.375 13.601562 23.242188 C 13.601562 19.109375 16.925781 15.738281 21 15.738281 C 25.074219 15.738281 28.398438 19.109375 28.398438 23.242188 C 28.398438 27.371094 25.070312 30.746094 21 30.746094 Z M 21 30.746094 "/>
<path style=" stroke:none;fill-rule:nonzero;fill:rgb(100%,100%,100%);fill-opacity:1;" d="M 7.371094 46 C 3.304688 45.988281 -0.0078125 42.605469 0 38.46875 C 0.0117188 34.339844 3.347656 30.976562 7.421875 30.988281 C 11.496094 31 14.808594 34.382812 14.796875 38.519531 C 14.785156 42.648438 11.449219 46.011719 7.371094 46 Z M 7.371094 46 "/>
<path style=" stroke:none;fill-rule:nonzero;fill:rgb(100%,100%,100%);fill-opacity:1;" d="M 62.339844 46 C 58.257812 46.023438 54.910156 42.675781 54.886719 38.550781 C 54.863281 34.410156 58.164062 31.011719 62.230469 30.988281 C 66.308594 30.964844 69.660156 34.316406 69.683594 38.4375 C 69.703125 42.574219 66.40625 45.976562 62.339844 46 Z M 62.339844 46 "/>
</g>
</svg>
